<svg width="37" height="36" viewBox="0 0 37 36" fill="none" xmlns="http://www.w3.org/2000/svg">
<circle cx="18.625" cy="18" r="18" fill="black"/>
<g clip-path="url(#clip0_660_934)">
<path d="M25.9043 13.3991C25.725 13.1839 25.5005 13.0109 25.2468 12.8922C24.993 12.7735 24.7163 12.7122 24.4362 12.7125H14.1291L14.1023 12.4888C14.0475 12.0237 13.824 11.5948 13.474 11.2836C13.1241 10.9723 12.6722 10.8003 12.2038 10.8H12.0623C11.8932 10.8 11.7311 10.8672 11.6115 10.9868C11.492 11.1063 11.4248 11.2685 11.4248 11.4375C11.4248 11.6066 11.492 11.7688 11.6115 11.8883C11.7311 12.0079 11.8932 12.075 12.0623 12.075H12.2038C12.36 12.0751 12.5107 12.1324 12.6274 12.2362C12.7441 12.3399 12.8186 12.4829 12.8369 12.638L13.7141 20.0967C13.8051 20.8724 14.1778 21.5877 14.7614 22.1068C15.345 22.6258 16.0989 22.9126 16.8799 22.9125H23.5373C23.7064 22.9125 23.8685 22.8454 23.9881 22.7258C24.1076 22.6063 24.1748 22.4441 24.1748 22.275C24.1748 22.106 24.1076 21.9438 23.9881 21.8243C23.8685 21.7047 23.7064 21.6375 23.5373 21.6375H16.8799C16.4853 21.6364 16.1007 21.5133 15.7789 21.2851C15.457 21.0568 15.2137 20.7346 15.0821 20.3625H22.6811C23.4285 20.3626 24.1521 20.1 24.7255 19.6208C25.2989 19.1415 25.6857 18.476 25.8183 17.7405L26.3187 14.9648C26.3687 14.6894 26.3574 14.4064 26.2858 14.1359C26.2142 13.8653 26.084 13.6138 25.9043 13.3991ZM25.0673 14.7385L24.5662 17.5142C24.4866 17.956 24.2542 18.3557 23.9095 18.6433C23.5649 18.931 23.13 19.0882 22.6811 19.0875H14.8794L14.2795 13.9875H24.4362C24.5298 13.987 24.6224 14.0071 24.7075 14.0464C24.7925 14.0857 24.8678 14.1432 24.928 14.2149C24.9883 14.2866 25.032 14.3707 25.0561 14.4612C25.0801 14.5517 25.084 14.6464 25.0673 14.7385Z" fill="white"/>
<path d="M15.8873 26.1005C16.5915 26.1005 17.1623 25.5297 17.1623 24.8255C17.1623 24.1214 16.5915 23.5505 15.8873 23.5505C15.1831 23.5505 14.6123 24.1214 14.6123 24.8255C14.6123 25.5297 15.1831 26.1005 15.8873 26.1005Z" fill="white"/>
<path d="M22.2623 26.1005C22.9665 26.1005 23.5373 25.5297 23.5373 24.8255C23.5373 24.1214 22.9665 23.5505 22.2623 23.5505C21.5581 23.5505 20.9873 24.1214 20.9873 24.8255C20.9873 25.5297 21.5581 26.1005 22.2623 26.1005Z" fill="white"/>
</g>
<defs>
<clipPath id="clip0_660_934">
<rect width="15.3" height="15.3" fill="white" transform="translate(11.4248 10.8)"/>
</clipPath>
</defs>
</svg>
