<svg xmlns="http://www.w3.org/2000/svg" width="6" height="12" viewBox="0 0 6 12" fill="none">
  <path d="M4.96388 4.42543L1.63648 1.01605C1.50065 0.877701 1.31692 0.800049 1.12541 0.800049C0.933891 0.800049 0.750157 0.877701 0.614334 1.01605C0.546388 1.0851 0.492458 1.16725 0.455654 1.25776C0.418851 1.34828 0.399902 1.44537 0.399902 1.54342C0.399902 1.64148 0.418851 1.73857 0.455654 1.82908C0.492458 1.9196 0.546388 2.00175 0.614334 2.0708L3.94899 5.47276C4.01693 5.54181 4.07086 5.62396 4.10767 5.71448C4.14447 5.80499 4.16342 5.90208 4.16342 6.00013C4.16342 6.09819 4.14447 6.19528 4.10767 6.28579C4.07086 6.37631 4.01693 6.45846 3.94899 6.52751L0.614334 9.92947C0.477828 10.0684 0.400758 10.2571 0.400078 10.4542C0.399398 10.6513 0.475165 10.8406 0.61071 10.9805C0.746254 11.1204 0.930474 11.1993 1.12284 11.2C1.31521 11.2007 1.49997 11.1231 1.63648 10.9842L4.96388 7.57484C5.37115 7.15702 5.5999 6.59065 5.5999 6.00013C5.5999 5.40962 5.37115 4.84325 4.96388 4.42543Z" fill="white"/>
</svg>