<svg xmlns="http://www.w3.org/2000/svg" width="6" height="12" viewBox="0 0 6 12" fill="none">
  <path d="M1.03612 4.42543L4.36352 1.01605C4.49935 0.877701 4.68308 0.800049 4.87459 0.800049C5.06611 0.800049 5.24984 0.877701 5.38567 1.01605C5.45361 1.0851 5.50754 1.16725 5.54435 1.25776C5.58115 1.34828 5.6001 1.44537 5.6001 1.54342C5.6001 1.64148 5.58115 1.73857 5.54435 1.82908C5.50754 1.9196 5.45361 2.00175 5.38567 2.0708L2.05101 5.47276C1.98307 5.54181 1.92914 5.62396 1.89233 5.71448C1.85553 5.80499 1.83658 5.90208 1.83658 6.00013C1.83658 6.09819 1.85553 6.19528 1.89233 6.28579C1.92914 6.37631 1.98307 6.45846 2.05101 6.52751L5.38567 9.92947C5.52217 10.0684 5.59924 10.2571 5.59992 10.4542C5.6006 10.6513 5.52483 10.8406 5.38929 10.9805C5.25375 11.1204 5.06953 11.1993 4.87716 11.2C4.68479 11.2007 4.50003 11.1231 4.36352 10.9842L1.03612 7.57484C0.628855 7.15702 0.400098 6.59065 0.400098 6.00013C0.400098 5.40962 0.628855 4.84325 1.03612 4.42543Z" fill="white"/>
</svg>