<svg xmlns="http://www.w3.org/2000/svg" width="21" height="22" viewBox="0 0 21 22" fill="none">
  <g clip-path="url(#clip0_660_940)">
    <path d="M10.125 11C11.1263 11 12.1051 10.7031 12.9376 10.1468C13.7701 9.59054 14.419 8.79989 14.8021 7.87484C15.1853 6.94979 15.2856 5.93189 15.0902 4.94986C14.8949 3.96783 14.4127 3.06578 13.7047 2.35777C12.9967 1.64977 12.0947 1.16761 11.1126 0.972277C10.1306 0.776939 9.11272 0.877194 8.18767 1.26036C7.26261 1.64353 6.47196 2.2924 5.91569 3.12493C5.35941 3.95745 5.0625 4.93623 5.0625 5.9375C5.06384 7.27975 5.59764 8.56664 6.54675 9.51575C7.49586 10.4649 8.78275 10.9987 10.125 11ZM10.125 2.5625C10.7925 2.5625 11.445 2.76044 12 3.13129C12.5551 3.50214 12.9876 4.02925 13.2431 4.64595C13.4985 5.26265 13.5654 5.94125 13.4352 6.59593C13.3049 7.25062 12.9835 7.85199 12.5115 8.32399C12.0395 8.79599 11.4381 9.11743 10.7834 9.24765C10.1287 9.37788 9.45014 9.31104 8.83344 9.0556C8.21674 8.80015 7.68964 8.36757 7.31879 7.81255C6.94794 7.25754 6.75 6.60501 6.75 5.9375C6.75 5.0424 7.10558 4.18395 7.73851 3.55102C8.37145 2.91808 9.22989 2.5625 10.125 2.5625Z" fill="black"/>
    <path d="M10.125 12.688C8.1117 12.6902 6.18149 13.491 4.75787 14.9146C3.33425 16.3382 2.53348 18.2684 2.53125 20.2817C2.53125 20.5055 2.62014 20.7201 2.77838 20.8784C2.93661 21.0366 3.15122 21.1255 3.375 21.1255C3.59878 21.1255 3.81339 21.0366 3.97162 20.8784C4.12986 20.7201 4.21875 20.5055 4.21875 20.2817C4.21875 18.7153 4.84101 17.213 5.94865 16.1054C7.05629 14.9978 8.55857 14.3755 10.125 14.3755C11.6914 14.3755 13.1937 14.9978 14.3013 16.1054C15.409 17.213 16.0312 18.7153 16.0312 20.2817C16.0312 20.5055 16.1201 20.7201 16.2784 20.8784C16.4366 21.0366 16.6512 21.1255 16.875 21.1255C17.0988 21.1255 17.3134 21.0366 17.4716 20.8784C17.6299 20.7201 17.7188 20.5055 17.7188 20.2817C17.7165 18.2684 16.9157 16.3382 15.4921 14.9146C14.0685 13.491 12.1383 12.6902 10.125 12.688Z" fill="black"/>
  </g>
  <defs>
    <clipPath id="clip0_660_940">
      <rect width="20.25" height="20.25" fill="white" transform="translate(0 0.875)"/>
    </clipPath>
  </defs>
</svg>